<svg width="269" height="276" viewBox="0 0 269 276" fill="none" xmlns="http://www.w3.org/2000/svg">
<path fill-rule="evenodd" clip-rule="evenodd" d="M149.24 -75.4514C181.377 -88.3352 210.511 -128.66 243.067 -116.864C273.954 -105.673 265.874 -56.5721 281.237 -27.6242C293.615 -4.30183 322.737 11.0152 324.891 37.3099C327.079 64.0167 295.623 83.2176 292.498 109.832C288.853 140.877 324.259 176.363 305.613 201.5C287.321 226.16 243.133 200.838 215.294 213.914C187.787 226.834 178.991 268.672 149.24 274.948C120.685 280.971 93.2685 259.819 68.1868 244.945C44.3306 230.799 18.9386 215.317 6.76205 190.459C-5.1161 166.211 2.23341 137.628 2.39933 110.646C2.53592 88.4357 6.08307 67.2128 7.65621 45.057C9.48788 19.2598 -3.57946 -11.0906 12.4854 -31.4041C28.5235 -51.6838 61.2159 -45.904 85.8732 -53.8459C107.385 -60.7747 128.266 -67.043 149.24 -75.4514Z" fill="#3FBB97"/>
</svg>
